# xmcd
# 
# Track frame offsets:
#     150
#     18145
#     41347
#     65367
#     95572
#     120140
#     137910
#     163155
#     179020
#     196197
#     214557
# 
# Disc length: 3209
# 
# Revision: 1
# Processed by: cddbd v1.5.2PL0 Copyright (c) Steve Scherf et al.
# Submitted via: BonkEnc v1.0.5
# 
DISCID=8e0c870b
DTITLE=John Lee Hooker - Don't Look Back
DYEAR=1997
DGENRE=Blues
TTITLE0=Dimples
TTITLE1=The Healing Game
TTITLE2=Ain't No Big Thing
TTITLE3=Don't Look Back
TTITLE4=Blues Before Sunrise
TTITLE5=Spellbound
TTITLE6=Travellin' Blues
TTITLE7=I Love You Honey
TTITLE8=Frisco Blues
TTITLE9=Red House
TTITLE10=Rainy Day
EXTD=(c) 1997 Pointblank (Virgin) Records  7243 8 42771 2 3\n\nRecording: Sausalito and Hollywood, CA\n\nJohn Lee Hooker: vocals, guitar\nDavid Hidalgo: guitar\nCesar Rosas: guitar\nSteve Berlin: bari sax\nConrad Lozano: bass\nVictor Bisetti: drums\nJohn 
EXTD="Juke" Logan: harmonica\nVan Morrison: vocals, guitar\nDanny Caron: guitar\nCharles Brown: keyboards\nRuth Davies:acoustic bass\nKevin Hayes: drums\nJim Pugh: keyboards\nGregory Davis: trumpet\nRoger Lewis: tenor sax, bari sax\n\nEntry: Mike Lemprier
EXTD=e  mikel@speakeasy.org  15-Apr-1997
EXTT0=
EXTT1=
EXTT2=
EXTT3=
EXTT4=
EXTT5=
EXTT6=
EXTT7=
EXTT8=
EXTT9=
EXTT10=
PLAYORDER=
